<svg width="150" height="150" viewBox="0 0 150 150" fill="none" xmlns="http://www.w3.org/2000/svg">
<rect width="150" height="150" fill="#F5F5F5"/>
<path d="M84.7083 52.5H64.2917C62.6808 52.5 61.375 53.8431 61.375 55.5V76.5C61.375 78.1569 62.6808 79.5 64.2917 79.5H84.7083C86.3192 79.5 87.625 78.1569 87.625 76.5V55.5C87.625 53.8431 86.3192 52.5 84.7083 52.5Z" stroke="#ADADAD" stroke-width="2" stroke-linecap="round" stroke-linejoin="round"/>
<path d="M70.1252 64.5C71.736 64.5 73.0418 63.1569 73.0418 61.5C73.0418 59.8431 71.736 58.5 70.1252 58.5C68.5143 58.5 67.2085 59.8431 67.2085 61.5C67.2085 63.1569 68.5143 64.5 70.1252 64.5Z" stroke="#ADADAD" stroke-width="2" stroke-linecap="round" stroke-linejoin="round"/>
<path d="M87.625 70.5L83.1246 65.871C82.5776 65.3086 81.8359 64.9927 81.0625 64.9927C80.2891 64.9927 79.5474 65.3086 79.0004 65.871L65.75 79.5" stroke="#ADADAD" stroke-width="2" stroke-linecap="round" stroke-linejoin="round"/>
<path d="M48.9912 98V89.6H50.1912L54.4752 96.044V89.6H55.6752V98H54.4752L50.1912 91.568V98H48.9912ZM60.1287 98.144C59.5607 98.144 59.0487 98.012 58.5927 97.748C58.1447 97.484 57.7887 97.116 57.5247 96.644C57.2687 96.164 57.1407 95.612 57.1407 94.988C57.1407 94.348 57.2727 93.792 57.5367 93.32C57.8007 92.84 58.1607 92.468 58.6167 92.204C59.0727 91.94 59.5847 91.808 60.1527 91.808C60.7287 91.808 61.2407 91.94 61.6887 92.204C62.1367 92.468 62.4887 92.836 62.7447 93.308C63.0087 93.78 63.1407 94.336 63.1407 94.976C63.1407 95.616 63.0087 96.172 62.7447 96.644C62.4887 97.116 62.1327 97.484 61.6767 97.748C61.2207 98.012 60.7047 98.144 60.1287 98.144ZM60.1287 97.112C60.4567 97.112 60.7527 97.032 61.0167 96.872C61.2887 96.712 61.5047 96.476 61.6647 96.164C61.8327 95.844 61.9167 95.448 61.9167 94.976C61.9167 94.504 61.8367 94.112 61.6767 93.8C61.5167 93.48 61.3007 93.24 61.0287 93.08C60.7647 92.92 60.4727 92.84 60.1527 92.84C59.8327 92.84 59.5367 92.92 59.2647 93.08C58.9927 93.24 58.7727 93.48 58.6047 93.8C58.4447 94.112 58.3647 94.504 58.3647 94.976C58.3647 95.448 58.4447 95.844 58.6047 96.164C58.7727 96.476 58.9887 96.712 59.2527 96.872C59.5247 97.032 59.8167 97.112 60.1287 97.112ZM67.6826 98V89.6H68.8826V98H67.6826ZM70.5758 98V91.952H71.6558L71.7398 92.804C71.9318 92.492 72.1878 92.248 72.5078 92.072C72.8278 91.896 73.1878 91.808 73.5878 91.808C73.8918 91.808 74.1678 91.852 74.4158 91.94C74.6638 92.02 74.8838 92.144 75.0758 92.312C75.2678 92.48 75.4238 92.688 75.5438 92.936C75.7598 92.584 76.0478 92.308 76.4078 92.108C76.7758 91.908 77.1638 91.808 77.5718 91.808C78.0598 91.808 78.4798 91.908 78.8318 92.108C79.1838 92.3 79.4518 92.592 79.6358 92.984C79.8198 93.368 79.9118 93.848 79.9118 94.424V98H78.7238V94.544C78.7238 93.984 78.6078 93.56 78.3758 93.272C78.1518 92.984 77.8198 92.84 77.3798 92.84C77.0838 92.84 76.8198 92.916 76.5878 93.068C76.3558 93.22 76.1718 93.44 76.0358 93.728C75.9078 94.016 75.8438 94.368 75.8438 94.784V98H74.6438V94.544C74.6438 93.984 74.5278 93.56 74.2958 93.272C74.0718 92.984 73.7398 92.84 73.2998 92.84C73.0198 92.84 72.7638 92.916 72.5318 93.068C72.2998 93.22 72.1158 93.44 71.9798 93.728C71.8438 94.016 71.7758 94.368 71.7758 94.784V98H70.5758ZM83.4665 98.144C82.9705 98.144 82.5585 98.06 82.2305 97.892C81.9025 97.724 81.6585 97.5 81.4985 97.22C81.3385 96.932 81.2585 96.624 81.2585 96.296C81.2585 95.896 81.3625 95.556 81.5705 95.276C81.7785 94.988 82.0745 94.768 82.4585 94.616C82.8425 94.464 83.3025 94.388 83.8385 94.388H85.4105C85.4105 94.036 85.3585 93.744 85.2545 93.512C85.1505 93.28 84.9945 93.108 84.7865 92.996C84.5865 92.876 84.3305 92.816 84.0185 92.816C83.6585 92.816 83.3505 92.904 83.0945 93.08C82.8385 93.248 82.6785 93.5 82.6145 93.836H81.4145C81.4625 93.412 81.6065 93.052 81.8465 92.756C82.0945 92.452 82.4105 92.22 82.7945 92.06C83.1785 91.892 83.5865 91.808 84.0185 91.808C84.5865 91.808 85.0625 91.908 85.4465 92.108C85.8305 92.308 86.1185 92.592 86.3105 92.96C86.5105 93.32 86.6105 93.752 86.6105 94.256V98H85.5665L85.4705 96.98C85.3825 97.14 85.2785 97.292 85.1585 97.436C85.0385 97.58 84.8945 97.704 84.7265 97.808C84.5665 97.912 84.3785 97.992 84.1625 98.048C83.9545 98.112 83.7225 98.144 83.4665 98.144ZM83.6945 97.172C83.9505 97.172 84.1825 97.12 84.3905 97.016C84.5985 96.912 84.7745 96.772 84.9185 96.596C85.0705 96.412 85.1825 96.208 85.2545 95.984C85.3345 95.752 85.3785 95.516 85.3865 95.276V95.24H83.9585C83.6145 95.24 83.3345 95.284 83.1185 95.372C82.9105 95.452 82.7585 95.564 82.6625 95.708C82.5665 95.852 82.5185 96.02 82.5185 96.212C82.5185 96.412 82.5625 96.584 82.6505 96.728C82.7465 96.864 82.8825 96.972 83.0585 97.052C83.2345 97.132 83.4465 97.172 83.6945 97.172ZM90.6022 100.784C90.0502 100.784 89.5622 100.712 89.1382 100.568C88.7142 100.432 88.3862 100.22 88.1542 99.932C87.9222 99.644 87.8062 99.292 87.8062 98.876C87.8062 98.66 87.8542 98.44 87.9502 98.216C88.0462 98 88.2022 97.792 88.4182 97.592C88.6342 97.392 88.9262 97.212 89.2942 97.052L89.9662 97.592C89.5582 97.744 89.2822 97.924 89.1382 98.132C89.0022 98.348 88.9342 98.556 88.9342 98.756C88.9342 98.996 89.0062 99.196 89.1502 99.356C89.2942 99.516 89.4902 99.636 89.7382 99.716C89.9942 99.796 90.2822 99.836 90.6022 99.836C90.9142 99.836 91.1862 99.792 91.4182 99.704C91.6502 99.616 91.8302 99.492 91.9582 99.332C92.0862 99.172 92.1502 98.984 92.1502 98.768C92.1502 98.512 92.0542 98.296 91.8622 98.12C91.6702 97.952 91.3022 97.852 90.7582 97.82C90.3022 97.788 89.9142 97.744 89.5942 97.688C89.2822 97.632 89.0142 97.564 88.7902 97.484C88.5742 97.404 88.3902 97.316 88.2382 97.22C88.0942 97.124 87.9702 97.024 87.8662 96.92V96.644L89.0662 95.408L90.0382 95.744L88.7302 96.956L88.9822 96.416C89.0702 96.472 89.1542 96.528 89.2342 96.584C89.3142 96.632 89.4222 96.676 89.5582 96.716C89.6942 96.756 89.8782 96.792 90.1102 96.824C90.3422 96.856 90.6462 96.888 91.0222 96.92C91.5662 96.96 92.0022 97.056 92.3302 97.208C92.6662 97.36 92.9102 97.564 93.0622 97.82C93.2142 98.076 93.2902 98.38 93.2902 98.732C93.2902 99.076 93.1942 99.404 93.0022 99.716C92.8182 100.028 92.5262 100.284 92.1262 100.484C91.7342 100.684 91.2262 100.784 90.6022 100.784ZM90.6022 96.14C90.0902 96.14 89.6542 96.044 89.2942 95.852C88.9422 95.66 88.6702 95.4 88.4782 95.072C88.2942 94.744 88.2022 94.38 88.2022 93.98C88.2022 93.572 88.2942 93.208 88.4782 92.888C88.6702 92.56 88.9462 92.3 89.3062 92.108C89.6662 91.908 90.0982 91.808 90.6022 91.808C91.1062 91.808 91.5342 91.908 91.8862 92.108C92.2462 92.3 92.5182 92.56 92.7022 92.888C92.8942 93.208 92.9902 93.572 92.9902 93.98C92.9902 94.38 92.8942 94.744 92.7022 95.072C92.5182 95.4 92.2462 95.66 91.8862 95.852C91.5342 96.044 91.1062 96.14 90.6022 96.14ZM90.6022 95.18C90.9942 95.18 91.3062 95.08 91.5382 94.88C91.7702 94.672 91.8862 94.372 91.8862 93.98C91.8862 93.588 91.7702 93.292 91.5382 93.092C91.3062 92.884 90.9942 92.78 90.6022 92.78C90.2102 92.78 89.8942 92.884 89.6542 93.092C89.4142 93.292 89.2942 93.588 89.2942 93.98C89.2942 94.372 89.4142 94.672 89.6542 94.88C89.8942 95.08 90.2102 95.18 90.6022 95.18ZM91.5862 92.9L91.2982 91.952H93.7822V92.78L91.5862 92.9ZM97.4875 98.144C96.9115 98.144 96.3995 98.012 95.9515 97.748C95.5035 97.484 95.1515 97.116 94.8955 96.644C94.6475 96.172 94.5235 95.624 94.5235 95C94.5235 94.36 94.6475 93.804 94.8955 93.332C95.1515 92.852 95.5035 92.48 95.9515 92.216C96.3995 91.944 96.9195 91.808 97.5115 91.808C98.1035 91.808 98.6115 91.94 99.0355 92.204C99.4595 92.468 99.7875 92.82 100.02 93.26C100.252 93.692 100.368 94.172 100.368 94.7C100.368 94.78 100.364 94.868 100.356 94.964C100.356 95.052 100.352 95.152 100.344 95.264H95.3995V94.412H99.1675C99.1435 93.908 98.9755 93.516 98.6635 93.236C98.3515 92.948 97.9635 92.804 97.4995 92.804C97.1715 92.804 96.8715 92.88 96.5995 93.032C96.3275 93.176 96.1075 93.392 95.9395 93.68C95.7795 93.96 95.6995 94.316 95.6995 94.748V95.084C95.6995 95.532 95.7795 95.912 95.9395 96.224C96.1075 96.528 96.3275 96.76 96.5995 96.92C96.8715 97.072 97.1675 97.148 97.4875 97.148C97.8715 97.148 98.1875 97.064 98.4355 96.896C98.6835 96.728 98.8675 96.5 98.9875 96.212H100.188C100.084 96.58 99.9075 96.912 99.6595 97.208C99.4115 97.496 99.1035 97.724 98.7355 97.892C98.3755 98.06 97.9595 98.144 97.4875 98.144Z" fill="#ACACAC"/>
</svg>
